HIERARCHY
ROOT joint_Root
{
	OFFSET 0.0 0.0 0.0
	CHANNELS 6 Xposition Yposition Zposition Zrotation Xrotation Yrotation 
	JOINT Hips
	{
		OFFSET 4.5925 91.4895 -427.239
		CHANNELS 6 Xposition Yposition Zposition Zrotation Xrotation Yrotation 
		JOINT Spine
		{
			OFFSET 15.7357 0.0 0.0
			CHANNELS 6 Xposition Yposition Zposition Zrotation Xrotation Yrotation 
			JOINT Chest
			{
				OFFSET 8.98455 -0.406207 0.0
				CHANNELS 6 Xposition Yposition Zposition Zrotation Xrotation Yrotation 
				JOINT Neck
				{
					OFFSET 16.3773 0.0 0.0
					CHANNELS 6 Xposition Yposition Zposition Zrotation Xrotation Yrotation 
					JOINT Head
					{
						OFFSET 6.45672 0.0 0.0
						CHANNELS 6 Xposition Yposition Zposition Zrotation Xrotation Yrotation 
						End Site
						{
							OFFSET 0.0 0.0 0.0
						}
					}
				}
				JOINT Shoulder_L
				{
					OFFSET 12.9942 -0.242716 4.98039
					CHANNELS 6 Xposition Yposition Zposition Zrotation Xrotation Yrotation 
					JOINT UpperArm_L
					{
						OFFSET 5.34809 0.0 0.0
						CHANNELS 6 Xposition Yposition Zposition Zrotation Xrotation Yrotation 
						JOINT LowerArm_L
						{
							OFFSET 24.3286 1.87007e-05 0.0
							CHANNELS 6 Xposition Yposition Zposition Zrotation Xrotation Yrotation 
							JOINT Hand_L
							{
								OFFSET 22.2916 0.0 0.0
								CHANNELS 6 Xposition Yposition Zposition Zrotation Xrotation Yrotation 
								End Site
								{
									OFFSET 0.0 0.0 0.0
								}
							}
						}
					}
				}
				JOINT Shoulder_R
				{
					OFFSET 12.9945 -0.242716 -4.98039
					CHANNELS 6 Xposition Yposition Zposition Zrotation Xrotation Yrotation 
					JOINT UpperArm_R
					{
						OFFSET -5.34813 0.0 0.0
						CHANNELS 6 Xposition Yposition Zposition Zrotation Xrotation Yrotation 
						JOINT LowerArm_R
						{
							OFFSET -24.3289 0.000322201 0.0
							CHANNELS 6 Xposition Yposition Zposition Zrotation Xrotation Yrotation 
							JOINT Hand_R
							{
								OFFSET -22.2915 -0.000108084 0.0
								CHANNELS 6 Xposition Yposition Zposition Zrotation Xrotation Yrotation 
								End Site
								{
									OFFSET 0.0 0.0 0.0
								}
							}
						}
					}
				}
			}
		}
		JOINT UpperLeg_L
		{
			OFFSET -2.19248 -6.46944 0.0
			CHANNELS 6 Xposition Yposition Zposition Zrotation Xrotation Yrotation 
			JOINT LowerLeg_L
			{
				OFFSET 39.0811 0.0 -1.23785e-05
				CHANNELS 6 Xposition Yposition Zposition Zrotation Xrotation Yrotation 
				JOINT Foot_L
				{
					OFFSET 40.9854 0.0 -1.26872e-05
					CHANNELS 6 Xposition Yposition Zposition Zrotation Xrotation Yrotation 
					JOINT Toes_L
					{
						OFFSET 11.7543 0.0 0.0
						CHANNELS 6 Xposition Yposition Zposition Zrotation Xrotation Yrotation 
						End Site
						{
							OFFSET 0.0 0.0 0.0
						}
					}
				}
			}
		}
		JOINT UpperLeg_R
		{
			OFFSET -2.19251 6.46944 0.0
			CHANNELS 6 Xposition Yposition Zposition Zrotation Xrotation Yrotation 
			JOINT LowerLeg_R
			{
				OFFSET -39.0811 -0.00228153 -0.0401928
				CHANNELS 6 Xposition Yposition Zposition Zrotation Xrotation Yrotation 
				JOINT Foot_R
				{
					OFFSET -40.9854 0.0 0.0
					CHANNELS 6 Xposition Yposition Zposition Zrotation Xrotation Yrotation 
					JOINT Toes_R
					{
						OFFSET -11.7543 0.0 0.0
						CHANNELS 6 Xposition Yposition Zposition Zrotation Xrotation Yrotation 
						End Site
						{
							OFFSET 0.0 0.0 0.0
						}
					}
				}
			}
		}
	}
}
MOTION
Frames:	4
Frame Time:	0.0333333
0.000000 0.000000 0.000000 0.000000 0.000000 -0.000000 -2.431900 91.279800 -8.461240 88.913300 -1.721920 7.049260 15.735700 0.000005 -0.000001 87.654700 75.792500 -88.181400 8.984550 -0.406207 -0.000000 20.622900 -1.193980 -0.839759 16.377300 -0.000001 -0.000001 12.401900 -2.066900 2.660680 6.456720 -0.000001 -0.000000 -18.197600 -2.060860 3.346120 12.994200 -0.242716 4.980390 -89.186400 -2.873140 -74.181700 5.348090 -0.000007 -0.000001 -79.167600 -10.299500 -81.131400 24.328600 0.000019 0.000005 42.223100 -8.594790 -99.351700 22.291600 -0.000001 0.000005 14.637000 5.073670 5.710570 12.994500 -0.242716 -4.980390 90.200200 -1.002210 -78.701600 -5.348130 -0.000001 -0.000004 -72.440000 -14.860300 -80.124400 -24.328900 0.000322 -0.000009 20.766000 -4.187630 -100.901000 -22.291500 -0.000108 -0.000004 29.103200 5.292020 0.294772 -2.192480 -6.469440 -0.000000 -174.972000 -12.195800 -9.607310 39.081100 -0.000007 -0.000012 -0.084896 0.147543 29.916300 40.985400 -0.000006 -0.000013 -0.068678 6.310430 -63.127100 11.754300 -0.000000 0.000003 -0.000240 -0.002160 -16.658600 -2.192510 6.469440 -0.000001 179.192000 22.720300 171.697000 -39.081100 -0.002282 -0.040193 -0.113200 0.210090 29.010500 -40.985400 0.000008 0.000006 5.588830 14.842600 -64.544500 -11.754300 -0.000006 -0.000006 -0.001909 -0.027576 -17.694400
0.000000 0.000000 0.000000 0.000000 0.000000 -0.000000 -2.451490 91.277900 -8.454120 88.894700 -1.673800 7.053690 15.735700 0.000005 -0.000001 87.621200 75.801700 -88.146300 8.984550 -0.406207 -0.000000 20.603700 -1.209250 -0.834023 16.377300 -0.000001 -0.000001 12.510400 -2.051210 2.659920 6.456720 -0.000001 -0.000000 -17.926400 -2.033660 3.399960 12.994200 -0.242716 4.980390 -89.195300 -2.827650 -74.106500 5.348090 -0.000007 -0.000001 -79.110400 -10.184700 -81.162800 24.328600 0.000019 0.000005 42.134400 -8.552110 -99.334900 22.291600 -0.000001 0.000005 14.664200 5.074750 5.686480 12.994500 -0.242716 -4.980390 90.191100 -0.952339 -78.651900 -5.348130 -0.000001 -0.000004 -72.301200 -14.797600 -80.055700 -24.328900 0.000322 -0.000009 20.905300 -4.214770 -100.892000 -22.291500 -0.000108 -0.000004 29.196200 5.286430 0.449498 -2.192480 -6.469440 -0.000000 -174.944000 -12.184400 -9.619170 39.081100 -0.000007 -0.000012 -0.085330 0.148195 29.933200 40.985400 -0.000006 -0.000013 -0.072381 6.335950 -63.127700 11.754300 -0.000000 0.000003 -0.000246 -0.002200 -16.660100 -2.192510 6.469440 -0.000001 179.222000 22.747200 171.711000 -39.081100 -0.002282 -0.040193 -0.111784 0.207550 29.008700 -40.985400 0.000008 0.000006 5.596840 14.803900 -64.554900 -11.754300 -0.000006 -0.000006 -0.001834 -0.026617 -17.655400
0.000000 0.000000 0.000000 0.000000 0.000000 -0.000000 -2.471240 91.277300 -8.452820 88.902900 -1.637220 7.107250 15.735700 0.000005 -0.000001 87.602100 75.782100 -88.138400 8.984550 -0.406207 -0.000000 20.642400 -1.221420 -0.853982 16.377300 -0.000001 -0.000001 12.694800 -2.018020 2.684250 6.456720 -0.000001 -0.000000 -17.724000 -2.018710 3.487450 12.994200 -0.242716 4.980390 -89.185500 -2.858970 -74.090700 5.348090 -0.000007 -0.000001 -79.155200 -10.107500 -81.100600 24.328600 0.000019 0.000005 42.012500 -8.593610 -99.418500 22.291600 -0.000001 0.000005 14.679900 5.078190 5.609050 12.994500 -0.242716 -4.980390 90.171600 -0.850312 -78.589200 -5.348130 -0.000001 -0.000004 -72.117200 -14.739100 -79.960800 -24.328900 0.000322 -0.000009 20.936800 -4.226130 -100.903000 -22.291500 -0.000108 -0.000004 29.172000 5.286350 0.451899 -2.192480 -6.469440 -0.000000 -174.925000 -12.160300 -9.557390 39.081100 -0.000007 -0.000012 -0.087183 0.151468 29.924500 40.985400 -0.000006 -0.000013 -0.084089 6.364650 -63.125600 11.754300 -0.000000 0.000003 -0.000241 -0.002168 -16.658900 -2.192510 6.469440 -0.000001 179.193000 22.785900 171.779000 -39.081100 -0.002282 -0.040193 -0.112243 0.208312 29.016300 -40.985400 0.000008 0.000006 5.608280 14.799100 -64.575000 -11.754300 -0.000006 -0.000006 -0.001947 -0.028049 -17.713600
0.000000 0.000000 0.000000 0.000000 0.000000 -0.000000 -2.492200 91.273100 -8.470750 88.887100 -1.608290 7.099710 15.735700 0.000005 -0.000001 87.590700 75.769900 -88.128200 8.984550 -0.406207 -0.000000 20.666600 -1.228120 -0.854941 16.377300 -0.000001 -0.000001 12.819700 -1.985680 2.742720 6.456720 -0.000001 -0.000000 -17.428500 -1.975380 3.551040 12.994200 -0.242716 4.980390 -89.181300 -2.876350 -74.104100 5.348090 -0.000007 -0.000001 -79.218000 -10.060600 -81.031000 24.328600 0.000019 0.000005 41.922900 -8.667830 -99.527200 22.291600 -0.000001 0.000005 14.715600 5.078450 5.603180 12.994500 -0.242716 -4.980390 90.154700 -0.763341 -78.540600 -5.348130 -0.000001 -0.000004 -71.932800 -14.692300 -79.849700 -24.328900 0.000322 -0.000009 20.960800 -4.251990 -100.954000 -22.291500 -0.000108 -0.000004 29.205300 5.285900 0.464163 -2.192480 -6.469440 -0.000000 -174.909000 -12.136000 -9.598240 39.081100 -0.000007 -0.000012 -0.084404 0.146480 29.951400 40.985400 -0.000006 -0.000013 -0.093923 6.353540 -63.119400 11.754300 -0.000000 0.000003 -0.000230 -0.002085 -16.655900 -2.192510 6.469440 -0.000001 179.232000 22.798300 171.751000 -39.081100 -0.002282 -0.040193 -0.112724 0.209086 29.027200 -40.985400 0.000008 0.000006 5.620970 14.771400 -64.571100 -11.754300 -0.000006 -0.000006 -0.001929 -0.027819 -17.704300
